<?xml version="1.0" encoding="utf-8"?>
<!-- Generator: Adobe Illustrator 19.0.0, SVG Export Plug-In . SVG Version: 6.00 Build 0)  -->
<svg version="1.1" id="Layer_1" xmlns="http://www.w3.org/2000/svg" xmlns:xlink="http://www.w3.org/1999/xlink" x="0px" y="0px"
	 viewBox="0 0 550 550" style="enable-background:new 0 0 550 550;" xml:space="preserve">
<style type="text/css">
	.st0{fill:#933EC5;}
</style>
<path class="st0" d="M408.8,396.5c0,3.6-1.7,7.1-3.4,8.8c-5.2,5.2-14.1,5.1-19.5-0.2L149.2,168.2c-5.4-5.4-5.5-14.2-0.2-19.5
	c5.2-5.2,14.1-5.1,19.5,0.2l235.1,236.8C406.9,389.3,408.7,393,408.8,396.5z"/>
<path class="st0" d="M407.4,158.2c0,3.5-1.8,7.1-3.6,9L167.3,403.7c-5.4,5.4-14.3,5.4-19.7,0c-5.4-5.4-5.4-14.3,0-19.7l236.5-236.5
	c5.4-5.4,14.3-5.4,19.7,0C405.7,151,407.4,154.6,407.4,158.2z"/>
<path class="st0" d="M275,550C123.2,550,0,426.8,0,275S123.2,0,275,0s275,123.2,275,275S426.8,550,275,550z M281,31
	C140.4,31.5,31,135,31,275.6S134.4,518,275,518s245-101.1,245-243S430.2,30.5,281,31z"/>
</svg>
