<?xml version="1.0" encoding="utf-8"?>
<!-- Generator: Adobe Illustrator 19.0.0, SVG Export Plug-In . SVG Version: 6.00 Build 0)  -->
<svg version="1.1" id="Layer_1" xmlns="http://www.w3.org/2000/svg" xmlns:xlink="http://www.w3.org/1999/xlink" x="0px" y="0px"
	 viewBox="-210 211 129 129" style="enable-background:new -210 211 129 129;" xml:space="preserve">
<style type="text/css">
	.st0{fill:#FCFCFC;}
</style>
<g>
	<g>
		<path class="st0" d="M-145.5,217.4c-25.5,0-46.3,20.8-46.3,46.4c0,3.1,0.3,6.2,0.9,9.2c0,0.2,0.1,0.4,0.1,0.7
			c5.1,22.9,41,57.3,42.5,58.7c0.8,0.8,1.8,1.1,2.8,1.1s2-0.4,2.8-1.1c1.5-1.5,37.2-35.8,42.3-58.2c0-0.2,0.1-0.4,0.1-0.6
			c0.7-3.2,1-6.5,1-9.8C-99.2,238.2-120,217.4-145.5,217.4z M-108.3,272.1c0,0.2,0,0.1,0,0.3c-3.8,16.6-28.7,42.8-37.2,51.3
			c-8.5-8.5-33.5-34.7-37.3-51.7c0-0.2,0-0.3-0.1-0.5c-0.5-2.6-0.8-5.2-0.8-7.8c0-21,17.1-38.2,38.1-38.2s38.2,17.1,38.2,38.2
			C-107.4,266.6-107.7,269.4-108.3,272.1z"/>
		<path class="st0" d="M-145.5,243.5c-8.6,0-15.5,7-15.5,15.5s7,15.5,15.5,15.5s15.5-6.9,15.5-15.5S-136.9,243.5-145.5,243.5z
			 M-145.5,266.4c-4.1,0-7.4-3.3-7.4-7.4s3.3-7.4,7.4-7.4s7.4,3.3,7.4,7.4S-141.4,266.4-145.5,266.4z"/>
	</g>
</g>
</svg>
