<svg xmlns="http://www.w3.org/2000/svg" viewBox="0 0 32 32" width="100%" height="100%">
    <style>
    .a {
        fill: #D80027;
    }
    </style>
    <path d="M25.8 10.8H6.2c-2.1 0-3.9-1.7-3.9-3.9s1.7-3.9 3.9-3.9h19.7c2.1 0 3.9 1.7 3.9 3.9S28 10.8 25.8 10.8zM6.2 5.1c-1 0-1.9 0.8-1.9 1.9s0.8 1.9 1.9 1.9h19.7c1 0 1.9-0.8 1.9-1.9s-0.8-1.9-1.9-1.9H6.2z" class="a" />
    <path d="M22.9 32H9.1c-1.4 0-2.6-1.1-2.8-2.5L4.4 9.9l2-0.2 2 19.6C8.4 29.7 8.7 30 9.1 30h13.7c0.4 0 0.7-0.3 0.8-0.7l2-19.6 2 0.2 -2 19.6C25.5 30.9 24.3 32 22.9 32z" class="a" />
    <path d="M20.2 4c-0.6 0-1-0.4-1-1C19.2 2.5 18.8 2 18.2 2h-4.4c-0.6 0-1 0.5-1 1 0 0.6-0.4 1-1 1s-1-0.4-1-1C10.8 1.4 12.1 0 13.8 0h4.4c1.7 0 3 1.4 3 3C21.2 3.6 20.8 4 20.2 4z" class="a" />
</svg>
